<svg width="100" height="100" viewBox="0 0 100 100" xmlns="http://www.w3.org/2000/svg">
  <defs>
    <linearGradient id="primaryGrad" x1="0%" y1="0%" x2="100%" y2="100%">
      <stop offset="0%" style="stop-color:#667eea;stop-opacity:1" />
      <stop offset="100%" style="stop-color:#764ba2;stop-opacity:1" />
    </linearGradient>
    <linearGradient id="secondaryGrad" x1="0%" y1="0%" x2="100%" y2="100%">
      <stop offset="0%" style="stop-color:#4facfe;stop-opacity:1" />
      <stop offset="100%" style="stop-color:#00f2fe;stop-opacity:1" />
    </linearGradient>
  </defs>
  
  <!-- Rounded square background -->
  <rect x="5" y="5" width="90" height="90" rx="20" ry="20" fill="url(#primaryGrad)"/>
  
  <!-- Inner design -->
  <g transform="translate(50, 50)">
    <!-- Stylized "A" -->
    <path d="M-15,20 L-10,-20 L-5,-20 L0,-5 L5,-20 L10,-20 L15,20 L8,20 L6,10 L-6,10 L-8,20 Z M-4,2 L4,2 L0,-10 Z" 
          fill="white"/>
    
    <!-- Accent chevron -->
    <path d="M0,-25 L8,-15 L4,-12 L0,-18 L-4,-12 L-8,-15 Z" fill="url(#secondaryGrad)"/>
  </g>
  
  <!-- Corner accents -->
  <circle cx="20" cy="20" r="2" fill="url(#secondaryGrad)" opacity="0.7"/>
  <circle cx="80" cy="80" r="2" fill="white" opacity="0.5"/>
</svg>