<svg width="100" height="100" viewBox="0 0 100 100" xmlns="http://www.w3.org/2000/svg">
  <defs>
    <linearGradient id="hexGrad" x1="0%" y1="0%" x2="100%" y2="100%">
      <stop offset="0%" style="stop-color:#667eea;stop-opacity:1" />
      <stop offset="50%" style="stop-color:#764ba2;stop-opacity:1" />
      <stop offset="100%" style="stop-color:#667eea;stop-opacity:1" />
    </linearGradient>
    <linearGradient id="accentHex" x1="0%" y1="0%" x2="100%" y2="100%">
      <stop offset="0%" style="stop-color:#00f2fe;stop-opacity:1" />
      <stop offset="100%" style="stop-color:#4facfe;stop-opacity:1" />
    </linearGradient>
  </defs>
  
  <!-- Hexagonal background -->
  <path d="M50,5 L80,25 L80,75 L50,95 L20,75 L20,25 Z" fill="url(#hexGrad)" stroke="rgba(255,255,255,0.2)" stroke-width="1"/>
  
  <!-- Inner hexagon -->
  <path d="M50,15 L70,30 L70,70 L50,85 L30,70 L30,30 Z" fill="none" stroke="rgba(255,255,255,0.1)" stroke-width="1"/>
  
  <!-- Letter "A" in tech style -->
  <g transform="translate(50, 50)">
    <!-- Main A structure -->
    <path d="M-10,15 L-6,-15 L-2,-15 L2,-15 L6,-15 L10,15 L5,15 L3,8 L-3,8 L-5,15 Z M-2,2 L2,2 L0,-8 Z" 
          fill="white"/>
    
    <!-- Tech accent line -->
    <rect x="-4" y="2" width="8" height="2" fill="url(#accentHex)" rx="1"/>
    
    <!-- Corner tech details -->
    <polygon points="-12,-12 -8,-12 -10,-8" fill="url(#accentHex)" opacity="0.8"/>
    <polygon points="12,-12 8,-12 10,-8" fill="white" opacity="0.6"/>
    <polygon points="0,18 -3,15 3,15" fill="url(#accentHex)" opacity="0.7"/>
  </g>
</svg>