<svg width="100" height="100" viewBox="0 0 100 100" xmlns="http://www.w3.org/2000/svg">
  <defs>
    <linearGradient id="logoGradient" x1="0%" y1="0%" x2="100%" y2="100%">
      <stop offset="0%" style="stop-color:#667eea;stop-opacity:1" />
      <stop offset="100%" style="stop-color:#764ba2;stop-opacity:1" />
    </linearGradient>
    <linearGradient id="accentGradient" x1="0%" y1="0%" x2="100%" y2="100%">
      <stop offset="0%" style="stop-color:#00f2fe;stop-opacity:1" />
      <stop offset="100%" style="stop-color:#4facfe;stop-opacity:1" />
    </linearGradient>
    <!-- Subtle shadow filter -->
    <filter id="softShadow" x="-50%" y="-50%" width="200%" height="200%">
      <feDropShadow dx="2" dy="2" stdDeviation="3" flood-color="#000000" flood-opacity="0.2"/>
    </filter>
  </defs>
  
  <!-- Main circle background -->
  <circle cx="50" cy="50" r="45" fill="url(#logoGradient)" filter="url(#softShadow)"/>
  
  <!-- Inner circle for depth -->
  <circle cx="50" cy="50" r="38" fill="none" stroke="rgba(255,255,255,0.1)" stroke-width="1"/>
  
  <!-- Letter "A" - Modern geometric design -->
  <g transform="translate(50, 50)">
    <!-- Main "A" structure -->
    <path d="M-12,15 L-8,-15 L-4,-15 L8,15 L3,15 L1,8 L-7,8 L-9,15 Z M-5,2 L-1,2 L-3,-6 Z" 
          fill="white" 
          stroke="none"/>
    
    <!-- Accent line across the A -->
    <rect x="-6" y="2" width="6" height="2" fill="url(#accentGradient)" rx="1"/>
    
    <!-- Small tech accent dots -->
    <circle cx="-15" cy="-15" r="1.5" fill="url(#accentGradient)" opacity="0.8"/>
    <circle cx="15" cy="-15" r="1" fill="white" opacity="0.6"/>
    <circle cx="15" cy="15" r="1.2" fill="url(#accentGradient)" opacity="0.7"/>
  </g>
  
  <!-- Subtle outer ring -->
  <circle cx="50" cy="50" r="47" fill="none" stroke="rgba(255,255,255,0.15)" stroke-width="0.5"/>
</svg>